<svg xmlns="http://www.w3.org/2000/svg" version="1.1" xmlns:xlink="http://www.w3.org/1999/xlink" width="512" height="512" x="0" y="0" viewBox="0 0 56 56" style="enable-background:new 0 0 512 512" xml:space="preserve" class=""><g><path fill="#fadc8f" d="M44.5 31.623V17.932c0-.688-.558-1.246-1.245-1.246H7.81c-.688 0-1.246.558-1.246 1.246v12.592c0 .688.558 1.246 1.246 1.246h36.507c.101 0 .183-.066.183-.147z" opacity="1" data-original="#afa1fd" class=""></path><path d="M44.178 11.11h.019a.5.5 0 0 0 .499-.48l.227-6.158c.024-.641-.974-.727-.999-.037l-.227 6.157a.5.5 0 0 0 .48.518zM47.16 11.596l1.52-2.453c.347-.562-.503-1.089-.85-.526l-1.52 2.453c-.35.568.509 1.079.85.526zM51.862 10.837c-.603.175-2.647 1.066-3.185 1.223a.499.499 0 1 0 .278.96c.603-.174 2.646-1.066 3.185-1.223.64-.185.35-1.15-.278-.96zM15.06 20.737a.5.5 0 1 0 .255-.967c-2.89-.76-5.715 2.188-5.533 5.619.07 1.322.637 2.53 1.479 3.154 1.164.861 2.45.57 3.817.149.629-.195.344-1.147-.295-.956-.976.301-2.07.64-2.927.003-.6-.443-1.022-1.387-1.075-2.403-.147-2.758 2.067-5.18 4.28-4.599zM34.694 20.89c.644.165.892-.8.255-.967-2.795-.736-5.528 2.114-5.352 5.43.068 1.278.617 2.447 1.432 3.05 1.123.832 2.364.555 3.692.147a.5.5 0 0 0-.293-.956c-.939.289-1.989.61-2.804.005-.573-.423-.976-1.326-1.028-2.3-.14-2.647 1.983-4.963 4.098-4.41zM19.656 29.088l1.844-.033c.625-.01.685-.95-.018-1l-1.844.033c-1.485.027-1.496-.346-1.504-1.144l-.063-7.091a.5.5 0 0 0-.5-.496h-.004a.5.5 0 0 0-.496.505l.064 7.153c.016 1.677.914 2.1 2.521 2.073zM27.855 20.175a.5.5 0 0 0-.5-.5h-2.723a.5.5 0 1 0 0 1h.845c.03 2.337.042 4.706.033 7.065l-.722-.006a.516.516 0 0 0-.505.496.5.5 0 0 0 .496.504l2.42.021h.004a.5.5 0 0 0 .005-1l-.698-.006c.009-2.362-.002-4.734-.033-7.074h.878a.5.5 0 0 0 .5-.5zM41.179 21.106a.5.5 0 0 0-.704-.073l-2.913 2.366c-.003-1.12-.006-2.201-.016-3.095-.007-.666-1.007-.654-1 .01.025 2.296.013 5.885.037 8.134.007.665 1.007.654 1-.011-.01-.89-.013-1.965-.016-3.081l2.908 2.363a.5.5 0 0 0 .63-.777l-3.158-2.566 3.159-2.567a.5.5 0 0 0 .073-.703z" fill="#000000" opacity="1" data-original="#000000"></path><path d="M45.062 35.239c1.454-.494 2.51-1.854 2.51-3.469V16.475a3.481 3.481 0 0 0-3.483-3.473H6.973a3.476 3.476 0 0 0-3.472 3.473v5.71a.5.5 0 1 0 1 0v-5.71a2.476 2.476 0 0 1 2.472-2.473H44.09a2.48 2.48 0 0 1 2.482 2.473V31.77c0 1.435-1.141 2.6-2.62 2.667-3.021-2.075-7.359-4.227-8.714-3.385-.69.428-1.016 1.755-1.11 3.397H6.973a2.476 2.476 0 0 1-2.472-2.473V25.6a.5.5 0 1 0-1 0v6.377a3.476 3.476 0 0 0 3.472 3.473h27.128c-.011 3.473 1.126 12.076 4.46 12.076 1.863 0 2.644-4.575 2.917-6.424 3.62 2.046 5.958 6.263 5.722 10.417a.5.5 0 0 0 .47.528h.029a.5.5 0 0 0 .499-.471c.215-3.777-1.524-7.607-4.397-10.065 1.63.4 3.51.692 4.43.216.334-.172.559-.439.651-.77.527-1.89-1.735-4.122-3.82-5.717zm2.857 5.45c-.008.027-.024.085-.146.148-.948.495-4.171-.327-6.193-1.02-.052-.757-.207-2.077-.676-2.622-1.104-1.28-3.198-.573-3.321 1.092-.037.504.124.993.454 1.376.458.532 1.716.84 2.496.987-.288 2.11-.96 5.172-1.797 5.8-.114.086-.179.077-.205.072-1.133-.19-2.248-2.39-2.91-5.74-.882-4.467-.521-8.468.144-8.881a.608.608 0 0 1 .315-.065c1.209 0 4.89 1.582 8.173 4.043 2.593 1.944 3.964 3.741 3.666 4.81zm-7.358-1.053c-.8-.166-1.586-.416-1.766-.625a.89.89 0 0 1-.215-.65c.059-.791 1.05-1.111 1.566-.514.181.211.34 1 .415 1.789z" fill="#000000" opacity="1" data-original="#000000"></path></g></svg>