<svg enable-background="new 0 0 520 520" height="512" viewBox="0 0 520 520" width="512" xmlns="http://www.w3.org/2000/svg"><g id="_x36_16_x2C__Banknote_x2C__Cash_x2C__Money"><g><path d="m481.545 257.04v95c-23.664 0-42.658 20.603-39.68 45h-285.64c2.972-24.401-16.013-45-39.68-45v-95c23.623 0 42.657-20.554 39.68-45h285.64c-2.974 24.367 15.985 45 39.68 45z" fill="#68ca44"/><path d="m98.455 427.5c11.05 0 20 8.95 20 20s-8.95 20-20 20c-11.04 0-20-8.95-20-20s8.96-20 20-20z" fill="#f88f19"/><path d="m448.455 47.5c16.57 0 30 13.43 30 30s-13.43 30-30 30c-16.561 0-30-13.43-30-30s13.44-30 30-30z" fill="#f88f19"/><path d="m404.234 130.96 19.261 81.08h-267.27-15.68c-13.25 0-24 10.75-24 24v21 95 12.71l-6.88 1.64c-12.9 3.061-25.84-4.909-28.9-17.81l-31.65-133.29c-3.06-12.9 4.91-25.83 17.81-28.9l308.421-73.24c12.899-3.06 25.829 4.91 28.888 17.81z" fill="#59d9a4"/><path d="m411.545 277.04c13.811 0 25 11.2 25 25 0 13.81-11.189 25-25 25s-25-11.19-25-25c0-13.8 11.189-25 25-25z" fill="#fc6"/><path d="m186.545 277.04c13.81 0 25 11.2 25 25 0 13.81-11.19 25-25 25s-25-11.19-25-25c0-13.8 11.19-25 25-25z" fill="#fc6"/><path d="m299.045 248.29c24.85 0 45 25.19 45 56.25 0 31.07-20.15 56.25-45 56.25s-45-25.18-45-56.25c0-31.06 20.15-56.25 45-56.25z" fill="#fc6"/><g fill="#4aa525"><path d="m481.545 236.04v21c-22.09 0-40-17.91-40-40 0-1.69.12-3.36.32-5h15.68c13.26 0 24 10.75 24 24z"/><path d="m481.545 352.04v21c0 13.26-10.74 24-24 24h-15.68c-.2-1.64-.32-3.3-.32-5 0-22.09 17.91-40 40-40z"/><path d="m156.545 392.04c0 1.7-.12 3.36-.32 5h-15.68c-13.25 0-24-10.74-24-24v-8.29-12.71c22.09 0 40 17.91 40 40z"/><path d="m156.225 212.04c.2 1.64.32 3.31.32 5 0 22.09-17.91 40-40 40v-21c0-13.25 10.75-24 24-24z"/></g><path d="m415.955 437.5c4.15 0 7.5 3.36 7.5 7.5s-3.35 7.5-7.5 7.5c-4.141 0-7.5-3.36-7.5-7.5s3.359-7.5 7.5-7.5z"/><path d="m350.955 52.5c4.15 0 7.5 3.36 7.5 7.5s-3.35 7.5-7.5 7.5c-4.141 0-7.5-3.36-7.5-7.5s3.359-7.5 7.5-7.5z"/><path d="m306.025 314.39c0-1.12-.45-1.989-1.351-2.609-.899-.62-2.1-1.19-3.6-1.7v7.72c3.301-.131 4.951-1.271 4.951-3.411zm-7.98-16.28v-7.92c-3 .26-4.5 1.51-4.5 3.739 0 1.07.37 1.92 1.13 2.54.75.621 1.87 1.171 3.37 1.641zm0 19.56v-8.56c-1.529-.489-5.119-1.319-8.55-2.99-2.743-1.327-5.011-3.205-6.08-6.021-1.049-2.684-1.058-7.154.41-10.449 2.505-5.591 7.546-8.171 13.521-8.78v-6.5h4.439v6.5c2.779.25 5.4.87 7.85 1.86 2.44.989 4.561 2 6.37 3.02l-4.64 8.76c-.558-.769-5.803-3.614-10.29-4.25v8.75c.362.104 4.086.91 7.979 2.48 5.889 2.343 8.301 6.345 8.301 11.87 0 8.968-6.526 13.503-15.57 13.899v7.46h-4.439v-7.529c-5.688-.501-11.773-2.312-16.601-5.53l4.63-9.2c.17.21.63.57 1.38 1.06 1.868 1.221 4.646 2.371 6.79 3.091 1.46.489 2.96.849 4.5 1.059z"/><path d="m230.955 412.5c4.15 0 7.5 3.36 7.5 7.5s-3.35 7.5-7.5 7.5c-4.14 0-7.5-3.36-7.5-7.5s3.36-7.5 7.5-7.5z"/><path d="m205.955 47.5c4.15 0 7.5 3.36 7.5 7.5s-3.35 7.5-7.5 7.5c-4.14 0-7.5-3.36-7.5-7.5s3.36-7.5 7.5-7.5z"/><path d="m155.955 462.5c4.15 0 7.5 3.36 7.5 7.5s-3.35 7.5-7.5 7.5c-4.14 0-7.5-3.36-7.5-7.5s3.36-7.5 7.5-7.5z"/><path d="m93.455 117.5c4.15 0 7.5 3.36 7.5 7.5s-3.35 7.5-7.5 7.5c-4.14 0-7.5-3.36-7.5-7.5s3.36-7.5 7.5-7.5z"/><path d="m40.955 360c4.15 0 7.5 3.36 7.5 7.5s-3.35 7.5-7.5 7.5c-4.14 0-7.5-3.36-7.5-7.5s3.36-7.5 7.5-7.5z"/><path d="m299.045 365.79c-27.57 0-50-27.477-50-61.25s22.43-61.25 50-61.25 50 27.477 50 61.25-22.43 61.25-50 61.25zm0-112.5c-22.057 0-40 22.99-40 51.25s17.943 51.25 40 51.25 40-22.99 40-51.25-17.943-51.25-40-51.25z"/><path d="m156.231 402.041c-.202 0-.406-.013-.611-.038-2.741-.333-4.693-2.826-4.359-5.567.19-1.564.283-3.002.283-4.396 0-19.299-15.701-35-35-35-2.761 0-5-2.238-5-5s2.239-5 5-5c24.813 0 45 20.187 45 45 0 1.802-.117 3.635-.356 5.604-.309 2.537-2.465 4.397-4.957 4.397z"/><path d="m116.545 262.04c-2.761 0-5-2.238-5-5 0-2.761 2.239-5 5-5 19.299 0 35-15.701 35-35 0-1.393-.093-2.831-.283-4.396-.334-2.741 1.618-5.234 4.359-5.568 2.739-.334 5.234 1.617 5.568 4.359.24 1.97.356 3.803.356 5.604 0 24.814-20.187 45.001-45 45.001z"/><path d="m441.859 402.041c-2.492 0-4.648-1.859-4.957-4.395-.24-1.969-.357-3.803-.357-5.606 0-24.813 20.188-45 45-45 2.762 0 5 2.238 5 5s-2.238 5-5 5c-19.299 0-35 15.701-35 35 0 1.395.093 2.832.283 4.394.335 2.741-1.615 5.235-4.357 5.569-.205.025-.41.038-.612.038z"/><path d="m481.545 262.04c-24.813 0-45-20.187-45-45 0-1.803.117-3.637.357-5.606.334-2.741 2.822-4.69 5.568-4.357 2.741.335 4.692 2.828 4.357 5.569-.19 1.563-.283 3-.283 4.394 0 19.299 15.701 35 35 35 2.762 0 5 2.239 5 5 .001 2.762-2.237 5-4.999 5z"/><path d="m104.065 372.049c-5.311 0-10.53-1.467-15.163-4.321-6.596-4.064-11.214-10.455-13.002-17.993l-31.65-133.29c-3.689-15.554 5.963-31.218 21.517-34.919l308.422-73.241c7.541-1.789 15.322-.535 21.914 3.529 6.593 4.064 11.208 10.454 12.996 17.992l19.26 81.079c.639 2.687-1.021 5.382-3.709 6.021-2.686.639-5.382-1.022-6.02-3.709l-19.261-81.08c-1.172-4.941-4.195-9.127-8.515-11.79-4.318-2.663-9.419-3.485-14.355-2.311l-308.42 73.24c-10.191 2.425-16.518 12.69-14.1 22.881l31.65 133.289c1.172 4.939 4.197 9.126 8.518 11.788 4.32 2.662 9.421 3.482 14.363 2.312l6.875-1.639c2.689-.643 5.383 1.019 6.023 3.705s-1.019 5.383-3.705 6.023l-6.88 1.64c-2.243.531-4.509.794-6.758.794z"/><path d="m411.545 332.04c-16.542 0-30-13.458-30-30s13.458-30 30-30 30 13.458 30 30-13.458 30-30 30zm0-50c-11.027 0-20 8.972-20 20s8.973 20 20 20 20-8.972 20-20-8.973-20-20-20z"/><path d="m186.545 332.04c-16.542 0-30-13.458-30-30s13.458-30 30-30 30 13.458 30 30-13.458 30-30 30zm0-50c-11.028 0-20 8.972-20 20s8.972 20 20 20 20-8.972 20-20-8.972-20-20-20z"/><path d="m457.545 402.04h-317c-15.991 0-29-13.01-29-29v-137c0-15.991 13.009-29 29-29h317c15.99 0 29 13.009 29 29v137c0 15.99-13.01 29-29 29zm-317-185c-10.477 0-19 8.523-19 19v137c0 10.477 8.523 19 19 19h317c10.477 0 19-8.523 19-19v-137c0-10.477-8.523-19-19-19z"/><path d="m448.455 112.5c-19.299 0-35-15.701-35-35s15.701-35 35-35 35 15.701 35 35-15.701 35-35 35zm0-60c-13.785 0-25 11.215-25 25s11.215 25 25 25 25-11.215 25-25-11.215-25-25-25z"/><path d="m98.455 472.5c-13.785 0-25-11.215-25-25s11.215-25 25-25 25 11.215 25 25-11.215 25-25 25zm0-40c-8.271 0-15 6.729-15 15s6.729 15 15 15 15-6.729 15-15-6.729-15-15-15z"/></g></g></svg>