<?xml version="1.0" encoding="iso-8859-1"?>
<!-- Generator: Adobe Illustrator 19.0.0, SVG Export Plug-In . SVG Version: 6.00 Build 0)  -->
<svg version="1.1" id="Capa_1" xmlns="http://www.w3.org/2000/svg" xmlns:xlink="http://www.w3.org/1999/xlink" x="0px" y="0px"
	 viewBox="0 0 512 512" style="enable-background:new 0 0 512 512;" xml:space="preserve">
<path style="fill:#AAB1BA;" d="M406.118,477.082h73.216c18.022,0,32.666-14.643,32.666-32.666v-26.624
	c0-21.811-13.722-41.267-34.304-48.538l-41.882-14.95c-11.162-3.994-13.517-18.842-3.994-25.805
	c18.125-13.312,29.901-34.816,29.901-59.085l0,0c0-40.55-32.87-73.318-73.318-73.318l0,0c-16.691,0-32.051,5.53-44.339,14.95
	H167.936c-12.288-9.318-27.648-14.95-44.339-14.95l0,0c-40.55,0-73.318,32.87-73.318,73.318l0,0
	c0,24.269,11.776,45.773,29.901,59.085c9.523,6.963,7.066,21.811-3.994,25.805l-41.882,14.848C13.722,376.525,0,395.981,0,417.792
	v26.624c0,18.022,14.643,32.666,32.666,32.666h73.216H406.118z"/>
<path style="fill:#83E1E5;" d="M405.709,474.112v-39.117c0-26.419-16.589-49.971-41.574-58.88l-50.688-18.022
	c-13.414-4.813-16.384-22.733-4.813-31.232c22.016-16.179,36.25-42.189,36.25-71.578l0,0c0-49.05-39.834-88.883-88.883-88.883l0,0
	c-49.05,0-88.883,39.834-88.883,88.883l0,0c0,29.389,14.234,55.398,36.25,71.578c11.469,8.499,8.602,26.419-4.813,31.232
	l-50.688,18.022c-24.883,8.806-41.574,32.461-41.574,58.88v39.117c0,18.022,14.643,32.666,32.666,32.666h234.189
	C391.066,506.675,405.709,492.134,405.709,474.112z"/>
<g>
	<path style="fill:#1C1D21;" d="M373.043,511.795H138.957c-20.787,0-37.786-16.896-37.786-37.786v-39.117
		c0-28.57,18.022-54.067,44.954-63.693l50.688-18.022c4.608-1.638,7.782-5.53,8.499-10.342c0.717-4.71-1.126-9.216-4.915-11.981
		c-20.89-15.36-34.611-38.912-37.683-64.512c-0.307-2.765,1.638-5.325,4.506-5.734c2.867-0.307,5.325,1.638,5.734,4.506
		c2.765,22.835,14.95,43.725,33.587,57.446c6.861,5.12,10.24,13.21,9.011,21.709c-1.229,8.499-7.066,15.565-15.155,18.432
		l-50.893,18.227c-22.835,8.09-38.093,29.798-38.093,53.965v39.219c0,15.155,12.39,27.546,27.546,27.546h234.189
		c15.155,0,27.546-12.39,27.546-27.546v-39.117c0-24.166-15.36-45.875-38.093-53.965l-50.688-18.022
		c-8.09-2.867-13.926-9.933-15.155-18.432s2.15-16.589,9.011-21.709c21.402-15.77,34.099-40.96,34.099-67.482
		c0-46.182-37.581-83.763-83.763-83.763c-7.475,0-14.95,1.024-22.118,2.97c-4.096,1.126-8.09,2.56-11.981,4.301
		c-2.56,1.126-5.632,0-6.758-2.56c-1.126-2.56,0-5.632,2.56-6.758c4.301-1.946,8.806-3.584,13.414-4.813
		c8.09-2.15,16.384-3.277,24.781-3.277c51.814,0,94.003,42.189,94.003,94.003c0,29.696-14.336,58.061-38.298,75.674
		c-3.789,2.765-5.632,7.27-4.915,11.981c0.717,4.813,3.891,8.704,8.499,10.342l50.688,18.022
		c26.931,9.523,44.954,35.123,44.954,63.693v38.912C410.829,494.899,393.933,511.795,373.043,511.795z"/>
	<path style="fill:#1C1D21;" d="M171.213,233.779c-0.512,0-1.024-0.102-1.536-0.205c-2.662-0.819-4.198-3.686-3.379-6.451
		c4.608-14.643,12.8-28.058,23.757-38.912c2.048-1.946,5.222-1.946,7.27,0.102c1.946,2.048,1.946,5.222-0.102,7.27
		c-9.728,9.626-17.101,21.606-21.197,34.611C175.411,232.448,173.363,233.779,171.213,233.779z"/>
</g>
<path style="fill:#FDDF7F;" d="M368.333,5.325c-15.36,0-27.853,12.493-27.853,27.853v109.158v24.269
	c0,6.042,7.168,9.216,11.674,5.222l24.986-22.426c5.12-4.608,11.776-7.168,18.637-7.168h83.251c15.36,0,27.853-12.493,27.853-27.853
	V33.178c0-15.36-12.493-27.853-27.853-27.853C479.027,5.325,368.333,5.325,368.333,5.325z"/>
<path style="fill:#1C1D21;" d="M347.546,178.79c-1.638,0-3.379-0.307-5.018-1.126c-4.403-1.946-7.168-6.246-7.168-11.059V33.178
	c0-18.227,14.848-32.973,32.973-32.973h110.592c18.227,0,32.973,14.848,32.973,32.973v81.306c0,18.227-14.848,32.973-32.973,32.973
	h-83.251c-5.632,0-10.957,2.048-15.155,5.837l-24.986,22.426C353.28,177.766,350.515,178.79,347.546,178.79z M368.333,10.445
	c-12.595,0-22.733,10.24-22.733,22.733v133.53c0,1.024,0.717,1.536,1.126,1.741c0.41,0.205,1.229,0.41,2.048-0.307l24.986-22.426
	c6.042-5.427,13.926-8.397,22.016-8.397h83.251c12.595,0,22.733-10.24,22.733-22.733V33.178c0-12.595-10.24-22.733-22.733-22.733
	C479.027,10.445,368.333,10.445,368.333,10.445z"/>
<g>
</g>
<g>
</g>
<g>
</g>
<g>
</g>
<g>
</g>
<g>
</g>
<g>
</g>
<g>
</g>
<g>
</g>
<g>
</g>
<g>
</g>
<g>
</g>
<g>
</g>
<g>
</g>
<g>
</g>
</svg>
